<svg version="1.2" xmlns="http://www.w3.org/2000/svg" viewBox="0 0 1191 1684" width="1191" height="1684">
	<title>Software cv-pdf</title>
	<defs>
		<clipPath clipPathUnits="userSpaceOnUse" id="cp1">
			<path d="m0 0h1191v1684h-1191z"/>
		</clipPath>
	</defs>
	<style>
		tspan { white-space:pre } 
		.s0 { fill: #ffffff } 
		.t1 { font-size: 20px;fill: #000000;font-family: "Proxima Nova" } 
		.t2 { font-size: 20px;line-height: 27px;fill: #000000;font-family: "Proxima Nova" } 
		.s3 { fill: #000000 } 
		.t4 { font-size: 20px;line-height: 27px;fill: #000000;font-weight: bold;font-family: "Proxima Nova" } 
		.t5 { font-size: 22px;line-height: 27px;fill: #000000;font-weight: bold;font-family: "Proxima Nova" } 
		.t6 { font-size: 68px;line-height: 27px;fill: #000000;font-weight: bold;font-family: "Proxima Nova" } 
		.s7 { fill: none;stroke: #000000;stroke-width: 1.5 } 
	</style>
	<g id="Page 1" clip-path="url(#cp1)">
		<path id="Path 1" class="s0" d="m0 1684.3h1191v-1684.5h-1191zm0 0h1191v-1684.5h-1191z"/>
		<text id="A passionate and motivated tech " style="transform: matrix(1,0,0,1,119,351.367)" >
			<tspan x="0" y="15.2" class="t1">A passionate and motivated tech enthusiast with experience in full-stack web development and data</tspan><tspan  y="15.2" class="t2">
</tspan>
			<tspan x="0" y="42.2" class="t2">analysis. Skilled in modern development tools and languages, with a strong foundation in HTML, CSS,
</tspan>
			<tspan x="0" y="69.2" class="t2">JavaScript, React.js, and MongoDB. Committed to merging technical expertise with problem-solving skills </tspan>
			<tspan x="0" y="96.2" class="t2">to
</tspan>
			<tspan x="0" y="123.2" class="t2">create impactful solutions.
</tspan>
		</text>
		<text id="Programming Languages &amp; Tools: J" style="transform: matrix(1,0,0,1,119,568.038)" >
			<tspan x="0" y="15.2" class="t2">Programming Languages &amp; </tspan>
			<tspan x="0" y="42.2" class="t2">Tools:
</tspan>
			<tspan x="0" y="69.2" class="t2">JavaScript, Python, R, HTML, </tspan>
			<tspan x="0" y="96.2" class="t2">CSS,
</tspan>
			<tspan x="0" y="123.2" class="t2">React.js, MongoDB, Firebase,
</tspan>
			<tspan x="0" y="150.2" class="t2">Vite, Git, Postman
</tspan>
		</text>
		<path id="Path 4" class="s3" d="m449.4 576q0 0.6-0.2 1.2-0.2 0.5-0.7 1-0.4 0.4-0.9 0.6-0.6 0.2-1.2 0.2-0.6 0-1.1-0.2-0.6-0.2-1-0.6-0.4-0.5-0.6-1-0.3-0.6-0.3-1.2 0-0.6 0.3-1.1 0.2-0.6 0.6-1 0.4-0.4 1-0.6 0.5-0.3 1.1-0.3 0.6 0 1.2 0.3 0.5 0.2 0.9 0.6 0.5 0.4 0.7 1 0.2 0.5 0.2 1.1z"/>
		<text id="Data Tools: Bugsigdb, R Programm" style="transform: matrix(1,0,0,1,465,568.038)" >
			<tspan x="0" y="15.2" class="t2">Data Tools: Bugsigdb, R
</tspan>
			<tspan x="0" y="42.2" class="t2">Programming
</tspan>
			<tspan x="0" y="69.2" class="t2">Version Control: GitHub
</tspan>
		</text>
		<path id="Path 6" class="s3" d="m449.4 630q0 0.6-0.2 1.2-0.2 0.5-0.7 1-0.4 0.4-0.9 0.6-0.6 0.2-1.2 0.2-0.6 0-1.1-0.2-0.6-0.2-1-0.6-0.4-0.5-0.6-1-0.3-0.6-0.3-1.2 0-0.6 0.3-1.1 0.2-0.6 0.6-1 0.4-0.4 1-0.6 0.5-0.3 1.1-0.3 0.6 0 1.2 0.3 0.5 0.2 0.9 0.6 0.5 0.4 0.7 1 0.2 0.5 0.2 1.1zm341.6-54q0 0.6-0.2 1.2-0.3 0.5-0.7 1-0.4 0.4-0.9 0.6-0.6 0.2-1.2 0.2-0.6 0-1.1-0.2-0.6-0.2-1-0.6-0.4-0.5-0.7-1-0.2-0.6-0.2-1.2 0-0.6 0.2-1.1 0.3-0.6 0.7-1 0.4-0.4 1-0.6 0.5-0.3 1.1-0.3 0.6 0 1.2 0.3 0.5 0.2 0.9 0.6 0.4 0.4 0.7 1 0.2 0.5 0.2 1.1z"/>
		<text id="Other Skills: Debugging, API tes" style="transform: matrix(1,0,0,1,807,568.038)" >
			<tspan x="0" y="15.2" class="t2">Other Skills: Debugging, API
</tspan>
			<tspan x="0" y="42.2" class="t2">testing, Responsive Web
</tspan>
			<tspan x="0" y="69.2" class="t2">Design
</tspan>
		</text>
		<text id="Outreachy Open source " style="transform: matrix(1,0,0,1,119.055,919.741)" >
			<tspan x="0" y="0" class="t4">Outreachy Open source 
</tspan>
		</text>
		<text id="ALX Africa-" style="transform: matrix(1,0,0,1,125.055,1070.741)" >
			<tspan x="0" y="0" class="t4">ALX Africa-
</tspan>
		</text>
		<text id="Intern" style="transform: matrix(1,0,0,1,125.055,939.691)" >
			<tspan x="0" y="0" class="t4">Intern
</tspan>
		</text>
		<text id="Intern " style="transform: matrix(1,0,0,1,238.11,1071.111)" >
			<tspan x="0" y="0" class="t4">Intern 
</tspan>
		</text>
		<path id="Path 12" class="s3" d="m136.7 965.7q0 0.6-0.2 1.1-0.3 0.6-0.7 1-0.4 0.4-1 0.7-0.5 0.2-1.1 0.2-0.6 0-1.2-0.2-0.5-0.3-0.9-0.7-0.5-0.4-0.7-1-0.2-0.5-0.2-1.1 0-0.6 0.2-1.2 0.2-0.5 0.7-0.9 0.4-0.5 0.9-0.7 0.6-0.2 1.2-0.2 0.6 0 1.1 0.2 0.6 0.2 1 0.7 0.4 0.4 0.7 0.9 0.2 0.6 0.2 1.2z"/>
		<text id="Contributed to Bugsigdb, gaining" style="transform: matrix(1,0,0,1,153,957.695)" >
			<tspan x="0" y="15.2" class="t2">Contributed to Bugsigdb, gaining experience in data curation and software tools for microbial </tspan>
			<tspan x="0" y="42.2" class="t2">research.
</tspan>
			<tspan x="0" y="69.2" class="t2">Developed scripts and performed data analysis using R Programming, enhancing proficiency in
</tspan>
			<tspan x="0" y="96.2" class="t2">bioinformatics workflows.
</tspan>
		</text>
		<path id="Path 14" class="s3" d="m136.7 992.7q0 0.6-0.2 1.1-0.3 0.6-0.7 1-0.4 0.4-1 0.7-0.5 0.2-1.1 0.2-0.6 0-1.2-0.2-0.5-0.3-0.9-0.7-0.5-0.4-0.7-1-0.2-0.5-0.2-1.1 0-0.6 0.2-1.2 0.2-0.5 0.7-0.9 0.4-0.5 0.9-0.7 0.6-0.2 1.2-0.2 0.6 0 1.1 0.2 0.6 0.2 1 0.7 0.4 0.4 0.7 0.9 0.2 0.6 0.2 1.2zm0 105.4q0 0.6-0.2 1.2-0.3 0.5-0.7 1-0.4 0.4-1 0.6-0.5 0.2-1.1 0.2-0.6 0-1.2-0.2-0.5-0.2-0.9-0.6-0.5-0.5-0.7-1-0.2-0.6-0.2-1.2 0-0.6 0.2-1.1 0.2-0.6 0.7-1 0.4-0.4 0.9-0.6 0.6-0.3 1.2-0.3 0.6 0 1.1 0.3 0.6 0.2 1 0.6 0.4 0.4 0.7 1 0.2 0.5 0.2 1.1z"/>
		<text id="Built dynamic and responsive web" style="transform: matrix(1,0,0,1,153,1090.144)" >
			<tspan x="0" y="15.2" class="t2">Built dynamic and responsive web applications using React.js and JavaScript.
</tspan>
			<tspan x="0" y="42.2" class="t2">Utilized MongoDB for database management in full-stack projects.
</tspan>
			<tspan x="0" y="69.2" class="t2">Leveraged Vite to optimize frontend builds for faster development.
</tspan>
			<tspan x="0" y="96.2" class="t2">Integrated RESTful APIs with Postman for efficient debugging and testing.
</tspan>
			<tspan x="0" y="123.2" class="t2">Gained proficiency in collaborative development using GitHub for version control.
</tspan>
		</text>
		<path id="Path 16" class="s3" d="m136.7 1125.1q0 0.6-0.2 1.2-0.3 0.5-0.7 1-0.4 0.4-1 0.6-0.5 0.2-1.1 0.2-0.6 0-1.2-0.2-0.5-0.2-0.9-0.6-0.5-0.5-0.7-1-0.2-0.6-0.2-1.2 0-0.6 0.2-1.1 0.2-0.6 0.7-1 0.4-0.4 0.9-0.6 0.6-0.3 1.2-0.3 0.6 0 1.1 0.3 0.6 0.2 1 0.6 0.4 0.4 0.7 1 0.2 0.5 0.2 1.1zm0 27q0 0.6-0.2 1.2-0.3 0.5-0.7 1-0.4 0.4-1 0.6-0.5 0.2-1.1 0.2-0.6 0-1.2-0.2-0.5-0.2-0.9-0.6-0.5-0.5-0.7-1-0.2-0.6-0.2-1.2 0-0.6 0.2-1.1 0.2-0.6 0.7-1 0.4-0.4 0.9-0.6 0.6-0.3 1.2-0.3 0.6 0 1.1 0.3 0.6 0.2 1 0.6 0.4 0.4 0.7 1 0.2 0.5 0.2 1.1zm0 27q0 0.6-0.2 1.2-0.3 0.5-0.7 1-0.4 0.4-1 0.6-0.5 0.2-1.1 0.2-0.6 0-1.2-0.2-0.5-0.2-0.9-0.6-0.5-0.5-0.7-1-0.2-0.6-0.2-1.2 0-0.6 0.2-1.1 0.2-0.6 0.7-1 0.4-0.4 0.9-0.6 0.6-0.3 1.2-0.3 0.6 0 1.1 0.3 0.6 0.2 1 0.6 0.4 0.4 0.7 1 0.2 0.5 0.2 1.1zm0 27q0 0.6-0.2 1.2-0.3 0.5-0.7 1-0.4 0.4-1 0.6-0.5 0.2-1.1 0.2-0.6 0-1.2-0.2-0.5-0.2-0.9-0.6-0.5-0.5-0.7-1-0.2-0.6-0.2-1.2 0-0.6 0.2-1.1 0.2-0.6 0.7-1 0.4-0.4 0.9-0.6 0.6-0.3 1.2-0.3 0.6 0 1.1 0.3 0.6 0.2 1 0.6 0.4 0.4 0.7 1 0.2 0.5 0.2 1.1z"/>
		<text id="Bachelor Of Pharmacy " style="transform: matrix(1,0,0,1,125.055,1349.216)" >
			<tspan x="0" y="0" class="t4">Bachelor Of Pharmacy 
</tspan>
		</text>
		<text id="Intern " style="transform: matrix(1,0,0,1,119.055,791.741)" >
			<tspan x="0" y="0" class="t4">Intern 
</tspan>
		</text>
		<text id="Univeristy of Uyo" style="transform: matrix(1,0,0,1,119.055,1390.216)" >
			<tspan x="0" y="0" class="t2">Univeristy of Uyo
</tspan>
		</text>
		<path id="Path 20" class="s3" d="m136.7 811.7q0 0.6-0.2 1.2-0.3 0.5-0.7 1-0.4 0.4-1 0.6-0.5 0.2-1.1 0.2-0.6 0-1.2-0.2-0.5-0.2-0.9-0.6-0.5-0.5-0.7-1-0.2-0.6-0.2-1.2 0-0.6 0.2-1.1 0.2-0.6 0.7-1 0.4-0.4 0.9-0.6 0.6-0.3 1.2-0.3 0.6 0 1.1 0.3 0.6 0.2 1 0.6 0.4 0.4 0.7 1 0.2 0.5 0.2 1.1z"/>
		<text id="Inensive boot camp focused on HT" style="transform: matrix(1,0,0,1,153,803.744)" >
			<tspan x="0" y="15.2" class="t2">Inensive boot camp focused on HTML, CSS, and JavaScript.
</tspan>
			<tspan x="0" y="42.2" class="t2">Built responsive web designs adhering to modern UI/UX principles.
</tspan>
			<tspan x="0" y="69.2" class="t2">Acquired foundational knowledge of web development concepts and coding best </tspan>
			<tspan x="0" y="96.2" class="t2">practices.
</tspan>
		</text>
		<path id="Path 22" class="s3" d="m136.7 838.7q0 0.6-0.2 1.2-0.3 0.5-0.7 1-0.4 0.4-1 0.6-0.5 0.2-1.1 0.2-0.6 0-1.2-0.2-0.5-0.2-0.9-0.6-0.5-0.5-0.7-1-0.2-0.6-0.2-1.2 0-0.6 0.2-1.1 0.2-0.6 0.7-1 0.4-0.4 0.9-0.6 0.6-0.3 1.2-0.3 0.6 0 1.1 0.3 0.6 0.2 1 0.6 0.4 0.4 0.7 1 0.2 0.5 0.2 1.1zm0 27q0 0.6-0.2 1.2-0.3 0.5-0.7 1-0.4 0.4-1 0.6-0.5 0.2-1.1 0.2-0.6 0-1.2-0.2-0.5-0.2-0.9-0.6-0.5-0.5-0.7-1-0.2-0.6-0.2-1.2 0-0.6 0.2-1.1 0.2-0.6 0.7-1 0.4-0.4 0.9-0.6 0.6-0.3 1.2-0.3 0.6 0 1.1 0.3 0.6 0.2 1 0.6 0.4 0.4 0.7 1 0.2 0.5 0.2 1.1z"/>
		<text id="November 2024 - Present " style="transform: matrix(1,0,0,1,832.654,764.741)" >
			<tspan x="0" y="0" class="t4">November 2024 - Present 
</tspan>
		</text>
		<text id="October  2024- October 2024" style="transform: matrix(1,0,0,1,807.412,926.241)" >
			<tspan x="0" y="0" class="t4">October  2024- October 2024
</tspan>
		</text>
		<text id="August 2023 - October 2024" style="transform: matrix(1,0,0,1,816.271,1072.141)" >
			<tspan x="0" y="0" class="t4">August 2023 - October 2024
</tspan>
		</text>
		<text id="SOFTWARE PROFILE" style="transform: matrix(1,0,0,1,119.055,329.15)" >
			<tspan x="0" y="0" class="t5">SOFTWARE PROFILE
</tspan>
		</text>
		<text id="+2347042035690   Inyangj6@gmail." style="transform: matrix(1,0,0,1,119,196.354)" >
			<tspan x="0" y="15.2" class="t2">+2347042035690   Inyangj6@gmail.com
</tspan>
			<tspan x="0" y="42.2" class="t2">Rosewood Estate off Ahmadu Bello Way, Wuse 2 </tspan>
			<tspan x="0" y="69.2" class="t2">Abuja 
</tspan>
		</text>
		<text id="John Inyang " style="transform: matrix(1,0,0,1,119.055,172.65)" >
			<tspan x="0" y="0" class="t6">John Inyang 
</tspan>
		</text>
		<text id="PROFESSIONAL EXPERIENCE" style="transform: matrix(1,0,0,1,119.055,722.602)" >
			<tspan x="0" y="0" class="t5">PROFESSIONAL EXPERIENCE
</tspan>
		</text>
		<text id="EDUCATION " style="transform: matrix(1,0,0,1,125.055,1285.116)" >
			<tspan x="0" y="0" class="t5">EDUCATION 
</tspan>
		</text>
		<text id="KEY COMPETENCIES" style="transform: matrix(1,0,0,1,119.055,542.663)" >
			<tspan x="0" y="0" class="t5">KEY COMPETENCIES
</tspan>
		</text>
		<path id="Path 32" class="s7" d="m119.1 275.1h952.4m-952.4 213.5h952.4m-952.4 184.5h952.4m-952.4 568.3h952.4m-476.2 26.4v296.8"/>
		<text id="CodeFlex 30-Day Coding Challenge" style="transform: matrix(1,0,0,1,118.69,758.902)" >
			<tspan x="0" y="0" class="t4">CodeFlex 30-Day Coding Challenge
</tspan>
		</text>
		<text id="PROJECT " style="transform: matrix(1,0,0,1,618.278,1278.44)" >
			<tspan x="0" y="0" class="t5">PROJECT 
</tspan>
		</text>
		<path id="Path 35" class="s3" d="m613.3 1316.2q0 0.6-0.3 1.2-0.2 0.5-0.6 1-0.4 0.4-1 0.6-0.5 0.2-1.1 0.2-0.6 0-1.2-0.2-0.5-0.2-0.9-0.6-0.5-0.5-0.7-1-0.2-0.6-0.2-1.2 0-0.6 0.2-1.1 0.2-0.6 0.7-1 0.4-0.4 0.9-0.6 0.6-0.3 1.2-0.3 0.6 0 1.1 0.3 0.6 0.2 1 0.6 0.4 0.4 0.6 1 0.3 0.5 0.3 1.1z"/>
		<text id="Netflix Clone App: Developed a N" style="transform: matrix(1,0,0,1,629,1308.243)" >
			<tspan x="0" y="15.2" class="t2">Netflix Clone App: Developed a Netflix-inspired
</tspan>
			<tspan x="0" y="42.2" class="t2">web application using ReactJS and Firebase.
</tspan>
			<tspan x="0" y="69.2" class="t2">SassyCart: Developed a full-stack e-commerce
</tspan>
			<tspan x="0" y="96.2" class="t2">application using ReactJS, MongoDB, and
</tspan>
			<tspan x="0" y="123.2" class="t2">Node.js.
</tspan>
			<tspan x="0" y="150.2" class="t2">Bug Signature Analysis Tool: Contributed to
</tspan>
			<tspan x="0" y="177.2" class="t2">data validation and analysis using
</tspan>
			<tspan x="0" y="204.2" class="t2">Bugsigdb,Developed scripts in R to analyze
</tspan>
			<tspan x="0" y="231.2" class="t2">microbial signatures effectively.
</tspan>
		</text>
		<path id="Path 37" class="s3" d="m613.3 1370.2q0 0.6-0.3 1.2-0.2 0.5-0.6 1-0.4 0.4-1 0.6-0.5 0.2-1.1 0.2-0.6 0-1.2-0.2-0.5-0.2-0.9-0.6-0.5-0.5-0.7-1-0.2-0.6-0.2-1.2 0-0.6 0.2-1.1 0.2-0.6 0.7-1 0.4-0.4 0.9-0.6 0.6-0.3 1.2-0.3 0.6 0 1.1 0.3 0.6 0.2 1 0.6 0.4 0.4 0.6 1 0.3 0.5 0.3 1.1zm0 81q0 0.6-0.3 1.2-0.2 0.5-0.6 1-0.4 0.4-1 0.6-0.5 0.2-1.1 0.2-0.6 0-1.2-0.2-0.5-0.2-0.9-0.6-0.5-0.5-0.7-1-0.2-0.6-0.2-1.2 0-0.6 0.2-1.1 0.2-0.6 0.7-1 0.4-0.4 0.9-0.6 0.6-0.3 1.2-0.3 0.6 0 1.1 0.3 0.6 0.2 1 0.6 0.4 0.4 0.6 1 0.3 0.5 0.3 1.1z"/>
	</g>
</svg>