<svg version="1.2" xmlns="http://www.w3.org/2000/svg" viewBox="1221 0 1191 1684" width="1191" height="1684">
	<title>+2347042035690 inyangj6@gmail</title>
	<defs>
		<clipPath clipPathUnits="userSpaceOnUse" id="cp1">
			<path d="m1221 0h1191v1684h-1191z"/>
		</clipPath>
	</defs>
	<style>
		tspan { white-space:pre } 
		.s0 { fill: #ffffff } 
		.t1 { font-size: 26px;line-height: 27px;fill: #000000;font-weight: bold;font-family: "Proxima Nova" } 
		.s2 { fill: #000000 } 
		.t3 { font-size: 26px;line-height: 27px;fill: #000000;font-family: "Proxima Nova" } 
		.t4 { font-size: 26px;line-height: 36px;fill: #000000;font-family: "Proxima Nova" } 
		.t5 { font-size: 24px;line-height: 36px;fill: #000000;font-family: "Proxima Nova" } 
		.t6 { font-size: 24px;line-height: 36px;fill: #000000;font-weight: bold;font-family: "Proxima Nova" } 
		.s7 { fill: none;stroke: #000000;stroke-width: 1.5 } 
		.t8 { font-size: 24px;line-height: 33px;fill: #000000;font-family: "Proxima Nova" } 
	</style>
	<g id="Page 2" clip-path="url(#cp1)">
		<path id="Path 39" class="s0" d="m1221 1684.3h1191v-1684.5h-1191zm0 0h1191v-1684.5h-1191z"/>
		<text id="PROJECTS " style="transform: matrix(1,0,0,1,1239.656,717.211)" >
			<tspan x="0" y="0" class="t1">PROJECTS 
</tspan>
		</text>
		<path id="Path 41" class="s2" d="m1246.5 796.6q0 0.7-0.3 1.4-0.3 0.7-0.8 1.2-0.5 0.5-1.2 0.8-0.7 0.3-1.5 0.3-0.7 0-1.4-0.3-0.7-0.3-1.2-0.8-0.5-0.5-0.8-1.2-0.3-0.7-0.3-1.4 0-0.8 0.3-1.5 0.3-0.7 0.8-1.2 0.5-0.5 1.2-0.8 0.7-0.3 1.4-0.3 0.8 0 1.5 0.3 0.7 0.3 1.2 0.8 0.5 0.5 0.8 1.2 0.3 0.7 0.3 1.5z"/>
		<text id="Netflix Clone App: Developed a N" style="transform: matrix(1,0,0,1,1265,786.621)" >
			<tspan x="0" y="19.8" class="t3">Netflix Clone App: Developed a Netflix-inspired</tspan><tspan  y="19.8" class="t4">
</tspan>
			<tspan x="0" y="55.8" class="t4">web application using ReactJS and Firebase.
</tspan>
			<tspan x="0" y="91.8" class="t4">SassyCart: Developed a full-stack e-commerce
</tspan>
			<tspan x="0" y="127.8" class="t4">application using ReactJS, MongoDB, and
</tspan>
			<tspan x="0" y="163.8" class="t4">Node.js.
</tspan>
			<tspan x="0" y="199.8" class="t4">Bug Signature Analysis Tool: Contributed to
</tspan>
			<tspan x="0" y="235.8" class="t4">data validation and analysis using
</tspan>
			<tspan x="0" y="271.8" class="t4">Bugsigdb,Developed scripts in R to analyze
</tspan>
			<tspan x="0" y="307.8" class="t4">microbial signatures effectively
</tspan>
			<tspan x="0" y="343.8" class="t4">Spotify Clone App
</tspan>
		</text>
		<path id="Path 43" class="s2" d="m1246.5 832.6q0 0.7-0.3 1.4-0.3 0.7-0.8 1.2-0.5 0.5-1.2 0.8-0.7 0.3-1.5 0.3-0.7 0-1.4-0.3-0.7-0.3-1.2-0.8-0.5-0.5-0.8-1.2-0.3-0.7-0.3-1.4 0-0.8 0.3-1.5 0.3-0.7 0.8-1.2 0.5-0.5 1.2-0.8 0.7-0.3 1.4-0.3 0.8 0 1.5 0.3 0.7 0.3 1.2 0.8 0.5 0.5 0.8 1.2 0.3 0.7 0.3 1.5zm0 36q0 0.7-0.3 1.4-0.3 0.7-0.8 1.2-0.5 0.5-1.2 0.8-0.7 0.3-1.5 0.3-0.7 0-1.4-0.3-0.7-0.3-1.2-0.8-0.5-0.5-0.8-1.2-0.3-0.7-0.3-1.4 0-0.8 0.3-1.5 0.3-0.7 0.8-1.2 0.5-0.5 1.2-0.8 0.7-0.3 1.4-0.3 0.8 0 1.5 0.3 0.7 0.3 1.2 0.8 0.5 0.5 0.8 1.2 0.3 0.7 0.3 1.5zm0 36q0 0.7-0.3 1.4-0.3 0.7-0.8 1.2-0.5 0.5-1.2 0.8-0.7 0.3-1.5 0.3-0.7 0-1.4-0.3-0.7-0.3-1.2-0.8-0.5-0.5-0.8-1.2-0.3-0.7-0.3-1.4 0-0.8 0.3-1.5 0.3-0.7 0.8-1.2 0.5-0.5 1.2-0.8 0.7-0.3 1.4-0.3 0.8 0 1.5 0.3 0.7 0.3 1.2 0.8 0.5 0.5 0.8 1.2 0.3 0.7 0.3 1.5zm0 36q0 0.7-0.3 1.4-0.3 0.7-0.8 1.2-0.5 0.5-1.2 0.8-0.7 0.3-1.5 0.3-0.7 0-1.4-0.3-0.7-0.3-1.2-0.8-0.5-0.5-0.8-1.2-0.3-0.7-0.3-1.4 0-0.8 0.3-1.5 0.3-0.7 0.8-1.2 0.5-0.5 1.2-0.8 0.7-0.3 1.4-0.3 0.8 0 1.5 0.3 0.7 0.3 1.2 0.8 0.5 0.5 0.8 1.2 0.3 0.7 0.3 1.5zm0 36q0 0.7-0.3 1.4-0.3 0.7-0.8 1.2-0.5 0.5-1.2 0.8-0.7 0.3-1.5 0.3-0.7 0-1.4-0.3-0.7-0.3-1.2-0.8-0.5-0.5-0.8-1.2-0.3-0.7-0.3-1.4 0-0.8 0.3-1.5 0.3-0.7 0.8-1.2 0.5-0.5 1.2-0.8 0.7-0.3 1.4-0.3 0.8 0 1.5 0.3 0.7 0.3 1.2 0.8 0.5 0.5 0.8 1.2 0.3 0.7 0.3 1.5zm0 36q0 0.7-0.3 1.4-0.3 0.7-0.8 1.2-0.5 0.5-1.2 0.8-0.7 0.3-1.5 0.3-0.7 0-1.4-0.3-0.7-0.3-1.2-0.8-0.5-0.5-0.8-1.2-0.3-0.7-0.3-1.4 0-0.8 0.3-1.5 0.3-0.7 0.8-1.2 0.5-0.5 1.2-0.8 0.7-0.3 1.4-0.3 0.8 0 1.5 0.3 0.7 0.3 1.2 0.8 0.5 0.5 0.8 1.2 0.3 0.7 0.3 1.5zm0 36q0 0.7-0.3 1.4-0.3 0.7-0.8 1.2-0.5 0.5-1.2 0.8-0.7 0.3-1.5 0.3-0.7 0-1.4-0.3-0.7-0.3-1.2-0.8-0.5-0.5-0.8-1.2-0.3-0.7-0.3-1.4 0-0.8 0.3-1.5 0.3-0.7 0.8-1.2 0.5-0.5 1.2-0.8 0.7-0.3 1.4-0.3 0.8 0 1.5 0.3 0.7 0.3 1.2 0.8 0.5 0.5 0.8 1.2 0.3 0.7 0.3 1.5zm0 36q0 0.7-0.3 1.4-0.3 0.7-0.8 1.2-0.5 0.5-1.2 0.8-0.7 0.3-1.5 0.3-0.7 0-1.4-0.3-0.7-0.3-1.2-0.8-0.5-0.5-0.8-1.2-0.3-0.7-0.3-1.4 0-0.8 0.3-1.5 0.3-0.7 0.8-1.2 0.5-0.5 1.2-0.8 0.7-0.3 1.4-0.3 0.8 0 1.5 0.3 0.7 0.3 1.2 0.8 0.5 0.5 0.8 1.2 0.3 0.7 0.3 1.5zm0 36q0 0.7-0.3 1.4-0.3 0.7-0.8 1.2-0.5 0.5-1.2 0.8-0.7 0.3-1.5 0.3-0.7 0-1.4-0.3-0.7-0.3-1.2-0.8-0.5-0.5-0.8-1.2-0.3-0.7-0.3-1.4 0-0.8 0.3-1.5 0.3-0.7 0.8-1.2 0.5-0.5 1.2-0.8 0.7-0.3 1.4-0.3 0.8 0 1.5 0.3 0.7 0.3 1.2 0.8 0.5 0.5 0.8 1.2 0.3 0.7 0.3 1.5z"/>
		<text id="University Of Uyo, AkwaIbom Stat" style="transform: matrix(1,0,0,1,1239.656,352.359)" >
			<tspan x="0" y="0" class="t5">University Of Uyo, AkwaIbom State
</tspan>
		</text>
		<text id="EDUCATION &amp; CERTIFICATIONS" style="transform: matrix(1,0,0,1,1239.656,204.07)" >
			<tspan x="0" y="0" class="t6">EDUCATION &amp; CERTIFICATIONS
</tspan>
		</text>
		<text id="Bachelor  Of Pharmacy" style="transform: matrix(1,0,0,1,1239.656,313.67)" >
			<tspan x="0" y="0" class="t5">Bachelor  Of Pharmacy
</tspan>
		</text>
		<path id="Path 47" class="s7" d="m1239.7 587.6h952.4"/>
		<text id="Alx Backend Certification " style="transform: matrix(1,0,0,1,1239.656,409.542)" >
			<tspan x="0" y="0" class="t5">Alx Backend Certification 
</tspan>
		</text>
		<text id="Frontend Certification - Freecod" style="transform: matrix(1,0,0,1,1240,449.442)" >
			<tspan x="0" y="18.2" class="t5">Frontend Certification </tspan>
			<tspan x="0" y="54.2" class="t5">-</tspan><tspan  y="54.2" class="t8">
</tspan>
			<tspan x="0" y="87.2" class="t8">Freecodecamp.com
</tspan>
		</text>
	</g>
</svg>