<svg version="1.2" xmlns="http://www.w3.org/2000/svg" viewBox="0 0 1191 1684" width="1191" height="1684">
	<title>+2347042035690 inyangj6@gmail</title>
	<defs>
		<clipPath clipPathUnits="userSpaceOnUse" id="cp1">
			<path d="m0 0h1191v1684h-1191z"/>
		</clipPath>
	</defs>
	<style>
		tspan { white-space:pre } 
		.s0 { fill: #ffffff } 
		.t1 { font-size: 20px;fill: #000000;font-family: "Proxima Nova" } 
		.t2 { font-size: 20px;line-height: 27px;fill: #000000;font-family: "Proxima Nova" } 
		.s3 { fill: #000000 } 
		.t4 { font-size: 20px;line-height: 27px;fill: #000000;font-weight: bold;font-family: "Proxima Nova" } 
		.t5 { font-size: 22px;line-height: 27px;fill: #000000;font-family: "Proxima Nova" } 
		.t6 { font-size: 68px;line-height: 27px;fill: #000000;font-weight: bold;font-family: "Proxima Nova" } 
		.t7 { font-size: 22px;line-height: 27px;fill: #000000;font-weight: bold;font-family: "Proxima Nova" } 
		.s8 { fill: none;stroke: #000000;stroke-width: 1.5 } 
	</style>
	<g id="Page 1" clip-path="url(#cp1)">
		<path id="Path 1" class="s0" d="m0 1684.3h1191v-1684.5h-1191zm0 0h1191v-1684.5h-1191z"/>
		<text id="A passionate and motivated tech " style="transform: matrix(1,0,0,1,148,268.867)" >
			<tspan x="0" y="15.2" class="t1">A passionate and motivated tech enthusiast with experience in full stack web development and data</tspan><tspan  y="15.2" class="t2">
</tspan>
			<tspan x="0" y="42.2" class="t2">analysis. Skilled in modern development tools and languages , with a strong foundation in HTML,
</tspan>
			<tspan x="0" y="69.2" class="t2">CSS,Javascript,ReactJs,Tailwind,MongoDB. commited to merging technical expertise with </tspan>
			<tspan x="0" y="96.2" class="t2">problem-solving
</tspan>
			<tspan x="0" y="123.2" class="t2">skills to create impactful solutions
</tspan>
		</text>
		<path id="Path 3" class="s3" d="m150.9 524.3q0 0.6-0.2 1.2-0.2 0.5-0.6 0.9-0.5 0.4-1 0.7-0.6 0.2-1.2 0.2-0.6 0-1.1-0.2-0.6-0.3-1-0.7-0.4-0.4-0.6-0.9-0.3-0.6-0.3-1.2 0-0.6 0.3-1.1 0.2-0.6 0.6-1 0.4-0.4 1-0.7 0.5-0.2 1.1-0.2 0.6 0 1.2 0.2 0.5 0.3 1 0.7 0.4 0.4 0.6 1 0.2 0.5 0.2 1.1z"/>
		<text id="Programming Languages &amp; Tools:Ja" style="transform: matrix(1,0,0,1,167,516.306)" >
			<tspan x="0" y="15.2" class="t2">Programming Languages &amp;
</tspan>
			<tspan x="0" y="42.2" class="t2">Tools:Javascript,Python,R,HT
</tspan>
			<tspan x="0" y="69.2" class="t2">ML,CSS,Tailwind,ReactJs,Mon
</tspan>
			<tspan x="0" y="96.2" class="t2">goDB,Firebase,Vite,Git.Postm
</tspan>
			<tspan x="0" y="123.2" class="t2">an
</tspan>
		</text>
		<path id="Path 5" class="s3" d="m492.1 530q0 0.6-0.2 1.1-0.2 0.6-0.6 1-0.5 0.4-1 0.6-0.6 0.3-1.2 0.3-0.5 0-1.1-0.3-0.5-0.2-1-0.6-0.4-0.4-0.6-1-0.3-0.5-0.3-1.1 0-0.6 0.3-1.2 0.2-0.5 0.6-1 0.5-0.4 1-0.6 0.6-0.2 1.1-0.2 0.6 0 1.2 0.2 0.5 0.2 1 0.6 0.4 0.5 0.6 1 0.2 0.6 0.2 1.2z"/>
		<text id="Data Tools: BugsigDB, R Programm" style="transform: matrix(1,0,0,1,508,521.967)" >
			<tspan x="0" y="15.2" class="t2">Data Tools: BugsigDB, </tspan>
			<tspan x="0" y="42.2" class="t2">R
</tspan>
			<tspan x="0" y="69.2" class="t2">Programming.
</tspan>
			<tspan x="0" y="96.2" class="t2">Version Control: Github
</tspan>
		</text>
		<path id="Path 7" class="s3" d="m492.1 584q0 0.6-0.2 1.1-0.2 0.6-0.6 1-0.5 0.4-1 0.6-0.6 0.3-1.2 0.3-0.5 0-1.1-0.3-0.5-0.2-1-0.6-0.4-0.4-0.6-1-0.3-0.5-0.3-1.1 0-0.6 0.3-1.2 0.2-0.5 0.6-1 0.5-0.4 1-0.6 0.6-0.2 1.1-0.2 0.6 0 1.2 0.2 0.5 0.2 1 0.6 0.4 0.5 0.6 1 0.2 0.6 0.2 1.2zm327.8-48.5q0 0.6-0.3 1.1-0.2 0.6-0.6 1-0.4 0.4-1 0.6-0.5 0.3-1.1 0.3-0.6 0-1.2-0.3-0.5-0.2-1-0.6-0.4-0.4-0.6-1-0.2-0.5-0.2-1.1 0-0.6 0.2-1.2 0.2-0.5 0.6-1 0.5-0.4 1-0.6 0.6-0.2 1.2-0.2 0.6 0 1.1 0.2 0.6 0.2 1 0.6 0.4 0.5 0.6 1 0.3 0.6 0.3 1.2z"/>
		<text id="Other : Debugging,API testing, R" style="transform: matrix(1,0,0,1,836,527.467)" >
			<tspan x="0" y="15.2" class="t2">Other : Debugging,API
</tspan>
			<tspan x="0" y="42.2" class="t2">testing, Responsive </tspan>
			<tspan x="0" y="69.2" class="t2">Web
</tspan>
			<tspan x="0" y="96.2" class="t2">Design
</tspan>
		</text>
		<text id="Outreachy Open Source" style="transform: matrix(1,0,0,1,161.417,993.741)" >
			<tspan x="0" y="0" class="t4">Outreachy Open Source
</tspan>
		</text>
		<text id="Alx Africa - Intern" style="transform: matrix(1,0,0,1,147.904,1201.741)" >
			<tspan x="0" y="0" class="t4">Alx Africa - Intern
</tspan>
		</text>
		<text id="intern" style="transform: matrix(1,0,0,1,161.417,1038.241)" >
			<tspan x="0" y="0" class="t4">intern
</tspan>
		</text>
		<text id="Freelance Web Developer &amp; Softwa" style="transform: matrix(1,0,0,1,132.933,1416.241)" >
			<tspan x="0" y="0" class="t4">Freelance Web Developer &amp; Software Engineer - Remote / Freelance
</tspan>
		</text>
		<path id="Path 13" class="s3" d="m150.9 1079.2q0 0.6-0.2 1.2-0.2 0.5-0.6 1-0.5 0.4-1 0.6-0.6 0.2-1.2 0.2-0.6 0-1.1-0.2-0.6-0.2-1-0.6-0.4-0.5-0.6-1-0.3-0.6-0.3-1.2 0-0.6 0.3-1.1 0.2-0.6 0.6-1 0.4-0.4 1-0.6 0.5-0.3 1.1-0.3 0.6 0 1.2 0.3 0.5 0.2 1 0.6 0.4 0.4 0.6 1 0.2 0.5 0.2 1.1z"/>
		<text id="Contributed to BugsigDB ,gaining" style="transform: matrix(1,0,0,1,167,1071.244)" >
			<tspan x="0" y="15.2" class="t2">Contributed to BugsigDB ,gaining experience in data curation and software tools for  microbial </tspan>
			<tspan x="0" y="42.2" class="t2">research.
</tspan>
			<tspan x="0" y="69.2" class="t2">Developed scripts and performed data analysis using R Programming, efficiency proficiency in
</tspan>
			<tspan x="0" y="96.2" class="t2">bioinformatics workflows
</tspan>
		</text>
		<path id="Path 15" class="s3" d="m150.9 1106.2q0 0.6-0.2 1.2-0.2 0.5-0.6 1-0.5 0.4-1 0.6-0.6 0.2-1.2 0.2-0.6 0-1.1-0.2-0.6-0.2-1-0.6-0.4-0.5-0.6-1-0.3-0.6-0.3-1.2 0-0.6 0.3-1.1 0.2-0.6 0.6-1 0.4-0.4 1-0.6 0.5-0.3 1.1-0.3 0.6 0 1.2 0.3 0.5 0.2 1 0.6 0.4 0.4 0.6 1 0.2 0.5 0.2 1.1zm0 137q0 0.6-0.2 1.2-0.2 0.5-0.6 1-0.5 0.4-1 0.6-0.6 0.2-1.2 0.2-0.6 0-1.1-0.2-0.6-0.2-1-0.6-0.4-0.5-0.6-1-0.3-0.6-0.3-1.2 0-0.6 0.3-1.1 0.2-0.6 0.6-1 0.4-0.4 1-0.6 0.5-0.3 1.1-0.3 0.6 0 1.2 0.3 0.5 0.2 1 0.6 0.4 0.4 0.6 1 0.2 0.5 0.2 1.1z"/>
		<text id="Built dynamic and responsive web" style="transform: matrix(1,0,0,1,167,1235.244)" >
			<tspan x="0" y="15.2" class="t2">Built dynamic and responsive web applications using React.js and JavaScript.
</tspan>
			<tspan x="0" y="42.2" class="t2">Utilized MongoDB for database management in full-stack projects.
</tspan>
			<tspan x="0" y="69.2" class="t2">Leveraged Vite to optimize frontend builds for faster development.
</tspan>
			<tspan x="0" y="96.2" class="t2">Integrated RESTful APIs with Postman for efficient debugging and testing.
</tspan>
			<tspan x="0" y="123.2" class="t2">Gained proficiency in collaborative development using GitHub for version control.
</tspan>
		</text>
		<path id="Path 17" class="s3" d="m150.9 1270.2q0 0.6-0.2 1.2-0.2 0.5-0.6 1-0.5 0.4-1 0.6-0.6 0.2-1.2 0.2-0.6 0-1.1-0.2-0.6-0.2-1-0.6-0.4-0.5-0.6-1-0.3-0.6-0.3-1.2 0-0.6 0.3-1.1 0.2-0.6 0.6-1 0.4-0.4 1-0.6 0.5-0.3 1.1-0.3 0.6 0 1.2 0.3 0.5 0.2 1 0.6 0.4 0.4 0.6 1 0.2 0.5 0.2 1.1zm0 27q0 0.6-0.2 1.2-0.2 0.5-0.6 1-0.5 0.4-1 0.6-0.6 0.2-1.2 0.2-0.6 0-1.1-0.2-0.6-0.2-1-0.6-0.4-0.5-0.6-1-0.3-0.6-0.3-1.2 0-0.6 0.3-1.1 0.2-0.6 0.6-1 0.4-0.4 1-0.6 0.5-0.3 1.1-0.3 0.6 0 1.2 0.3 0.5 0.2 1 0.6 0.4 0.4 0.6 1 0.2 0.5 0.2 1.1zm0 27q0 0.6-0.2 1.2-0.2 0.5-0.6 1-0.5 0.4-1 0.6-0.6 0.2-1.2 0.2-0.6 0-1.1-0.2-0.6-0.2-1-0.6-0.4-0.5-0.6-1-0.3-0.6-0.3-1.2 0-0.6 0.3-1.1 0.2-0.6 0.6-1 0.4-0.4 1-0.6 0.5-0.3 1.1-0.3 0.6 0 1.2 0.3 0.5 0.2 1 0.6 0.4 0.4 0.6 1 0.2 0.5 0.2 1.1zm0 27q0 0.6-0.2 1.2-0.2 0.5-0.6 1-0.5 0.4-1 0.6-0.6 0.2-1.2 0.2-0.6 0-1.1-0.2-0.6-0.2-1-0.6-0.4-0.5-0.6-1-0.3-0.6-0.3-1.2 0-0.6 0.3-1.1 0.2-0.6 0.6-1 0.4-0.4 1-0.6 0.5-0.3 1.1-0.3 0.6 0 1.2 0.3 0.5 0.2 1 0.6 0.4 0.4 0.6 1 0.2 0.5 0.2 1.1z"/>
		<text id="CodeFlex   30-Day Coding Challen" style="transform: matrix(1,0,0,1,161.417,784.571)" >
			<tspan x="0" y="0" class="t4">CodeFlex   30-Day Coding Challenge
</tspan>
		</text>
		<text id=" Intern" style="transform: matrix(1,0,0,1,161.417,824.241)" >
			<tspan x="0" y="0" class="t4"> Intern
</tspan>
		</text>
		<path id="Path 20" class="s3" d="m150.9 879.2q0 0.6-0.2 1.2-0.2 0.5-0.6 1-0.5 0.4-1 0.6-0.6 0.2-1.2 0.2-0.6 0-1.1-0.2-0.6-0.2-1-0.6-0.4-0.5-0.6-1-0.3-0.6-0.3-1.2 0-0.6 0.3-1.1 0.2-0.6 0.6-1 0.4-0.4 1-0.6 0.5-0.3 1.1-0.3 0.6 0 1.2 0.3 0.5 0.2 1 0.6 0.4 0.4 0.6 1 0.2 0.5 0.2 1.1z"/>
		<text id="Intensive bootcamp focused on HT" style="transform: matrix(1,0,0,1,167,871.244)" >
			<tspan x="0" y="15.2" class="t2">Intensive bootcamp focused on HTML,CSS, and JavaScript.
</tspan>
			<tspan x="0" y="42.2" class="t2">Built responsive web designs adhering to modern UI/UX principles.
</tspan>
			<tspan x="0" y="69.2" class="t2">Acquired foundational knowledge of web development concept  and coding best </tspan>
			<tspan x="0" y="96.2" class="t2">practices
</tspan>
		</text>
		<path id="Path 22" class="s3" d="m150.9 906.2q0 0.6-0.2 1.2-0.2 0.5-0.6 1-0.5 0.4-1 0.6-0.6 0.2-1.2 0.2-0.6 0-1.1-0.2-0.6-0.2-1-0.6-0.4-0.5-0.6-1-0.3-0.6-0.3-1.2 0-0.6 0.3-1.1 0.2-0.6 0.6-1 0.4-0.4 1-0.6 0.5-0.3 1.1-0.3 0.6 0 1.2 0.3 0.5 0.2 1 0.6 0.4 0.4 0.6 1 0.2 0.5 0.2 1.1zm0 27q0 0.6-0.2 1.2-0.2 0.5-0.6 1-0.5 0.4-1 0.6-0.6 0.2-1.2 0.2-0.6 0-1.1-0.2-0.6-0.2-1-0.6-0.4-0.5-0.6-1-0.3-0.6-0.3-1.2 0-0.6 0.3-1.1 0.2-0.6 0.6-1 0.4-0.4 1-0.6 0.5-0.3 1.1-0.3 0.6 0 1.2 0.3 0.5 0.2 1 0.6 0.4 0.4 0.6 1 0.2 0.5 0.2 1.1z"/>
		<text id="Nov 2024 - Present" style="transform: matrix(1,0,0,1,919.209,784.741)" >
			<tspan x="0" y="0" class="t4">Nov 2024 - Present
</tspan>
		</text>
		<text id="Oct 2024 - Oct 2024 " style="transform: matrix(1,0,0,1,902.545,988.741)" >
			<tspan x="0" y="0" class="t4">Oct 2024 - Oct 2024 
</tspan>
		</text>
		<text id="SOFTWARE PROFILE" style="transform: matrix(1,0,0,1,147.904,243.563)" >
			<tspan x="0" y="0" class="t5">SOFTWARE PROFILE
</tspan>
		</text>
		<text id=" inyangj6@gmail.com Rosewood Est" style="transform: matrix(1,0,0,1,148,148.267)" >
			<tspan x="0" y="15.2" class="t2"> inyangj6@gmail.com
</tspan>
			<tspan x="0" y="42.2" class="t2">Rosewood Estate 
</tspan>
		</text>
		<text id="John Inyang" style="transform: matrix(1,0,0,1,119.055,118.563)" >
			<tspan x="0" y="0" class="t6">John Inyang
</tspan>
		</text>
		<text id="PROFESSIONAL EXPERIENCE" style="transform: matrix(1,0,0,1,161.417,752.602)" >
			<tspan x="0" y="0" class="t7">PROFESSIONAL EXPERIENCE
</tspan>
		</text>
		<text id="KEY COMPETENCIES" style="transform: matrix(1,0,0,1,161.396,443.052)" >
			<tspan x="0" y="0" class="t7">KEY COMPETENCIES
</tspan>
		</text>
		<path id="Path 30" class="s8" d="m132.9 206h952.5m-924 468.6h952.5"/>
		<text id="August 2023- October 2024" style="transform: matrix(1,0,0,1,838.748,1187.241)" >
			<tspan x="0" y="0" class="t4">August 2023- October 2024
</tspan>
		</text>
		<path id="Path 32" class="s3" d="m137.1 1472.2q0 0.6-0.3 1.2-0.2 0.5-0.6 1-0.4 0.4-1 0.6-0.5 0.2-1.1 0.2-0.6 0-1.2-0.2-0.5-0.2-1-0.6-0.4-0.5-0.6-1-0.2-0.6-0.2-1.2 0-0.6 0.2-1.1 0.2-0.6 0.6-1 0.5-0.4 1-0.6 0.6-0.3 1.2-0.3 0.6 0 1.1 0.3 0.6 0.2 1 0.6 0.4 0.4 0.6 1 0.3 0.5 0.3 1.1z"/>
		<text id="Developed dynamic websites and w" style="transform: matrix(1,0,0,1,153,1464.244)" >
			<tspan x="0" y="15.2" class="t2">Developed dynamic websites and web applications using Python, JavaScript, HTML, and CSS.
</tspan>
			<tspan x="0" y="42.2" class="t2">Built custom back-end solutions with Flask and Django, and front-end with React and JavaScript.
</tspan>
			<tspan x="0" y="69.2" class="t2">Created responsive, user-friendly web applications, including e-commerce sites and portfolio </tspan>
			<tspan x="0" y="96.2" class="t2">websites.
</tspan>
			<tspan x="0" y="123.2" class="t2">Integrated APIs, handled user authentication, and optimized websites for performance.
</tspan>
			<tspan x="0" y="150.2" class="t2">Collaborated closely with clients to meet their needs and deliver high-quality solutions.
</tspan>
			<tspan x="0" y="177.2" class="t2">Delivered projects on time, ensuring client satisfaction and maintaining long-term relationships.
</tspan>
		</text>
		<path id="Path 34" class="s3" d="m137.1 1499.2q0 0.6-0.3 1.2-0.2 0.5-0.6 1-0.4 0.4-1 0.6-0.5 0.2-1.1 0.2-0.6 0-1.2-0.2-0.5-0.2-1-0.6-0.4-0.5-0.6-1-0.2-0.6-0.2-1.2 0-0.6 0.2-1.1 0.2-0.6 0.6-1 0.5-0.4 1-0.6 0.6-0.3 1.2-0.3 0.6 0 1.1 0.3 0.6 0.2 1 0.6 0.4 0.4 0.6 1 0.3 0.5 0.3 1.1zm0 27q0 0.6-0.3 1.2-0.2 0.5-0.6 1-0.4 0.4-1 0.6-0.5 0.2-1.1 0.2-0.6 0-1.2-0.2-0.5-0.2-1-0.6-0.4-0.5-0.6-1-0.2-0.6-0.2-1.2 0-0.6 0.2-1.1 0.2-0.6 0.6-1 0.5-0.4 1-0.6 0.6-0.3 1.2-0.3 0.6 0 1.1 0.3 0.6 0.2 1 0.6 0.4 0.4 0.6 1 0.3 0.5 0.3 1.1zm0 27q0 0.6-0.3 1.2-0.2 0.5-0.6 1-0.4 0.4-1 0.6-0.5 0.2-1.1 0.2-0.6 0-1.2-0.2-0.5-0.2-1-0.6-0.4-0.5-0.6-1-0.2-0.6-0.2-1.2 0-0.6 0.2-1.1 0.2-0.6 0.6-1 0.5-0.4 1-0.6 0.6-0.3 1.2-0.3 0.6 0 1.1 0.3 0.6 0.2 1 0.6 0.4 0.4 0.6 1 0.3 0.5 0.3 1.1zm0 27q0 0.6-0.3 1.2-0.2 0.5-0.6 1-0.4 0.4-1 0.6-0.5 0.2-1.1 0.2-0.6 0-1.2-0.2-0.5-0.2-1-0.6-0.4-0.5-0.6-1-0.2-0.6-0.2-1.2 0-0.6 0.2-1.1 0.2-0.6 0.6-1 0.5-0.4 1-0.6 0.6-0.3 1.2-0.3 0.6 0 1.1 0.3 0.6 0.2 1 0.6 0.4 0.4 0.6 1 0.3 0.5 0.3 1.1zm0 27q0 0.6-0.3 1.2-0.2 0.5-0.6 1-0.4 0.4-1 0.6-0.5 0.2-1.1 0.2-0.6 0-1.2-0.2-0.5-0.2-1-0.6-0.4-0.5-0.6-1-0.2-0.6-0.2-1.2 0-0.6 0.2-1.1 0.2-0.6 0.6-1 0.5-0.4 1-0.6 0.6-0.3 1.2-0.3 0.6 0 1.1 0.3 0.6 0.2 1 0.6 0.4 0.4 0.6 1 0.3 0.5 0.3 1.1z"/>
		<text id="Oct 2022- Date" style="transform: matrix(1,0,0,1,955.162,1416.241)" >
			<tspan x="0" y="0" class="t4">Oct 2022- Date
</tspan>
		</text>
		<path id="Path 36" class="s8" d="m147.9 408.5h952.4"/>
	</g>
</svg>